<?xml version="1.0" standalone="no"?>
<!DOCTYPE svg PUBLIC "-//W3C//DTD SVG 20010904//EN"
 "http://www.w3.org/TR/2001/REC-SVG-20010904/DTD/svg10.dtd">
<svg version="1.0" xmlns="http://www.w3.org/2000/svg"
 width="80.000000pt" height="122.000000pt" viewBox="0 0 80.000000 122.000000"
 preserveAspectRatio="xMidYMid meet">
<metadata>
Created by potrace 1.13, written by Peter Selinger 2001-2015
</metadata>
<g transform="translate(0.000000,122.000000) scale(0.100000,-0.100000)"
fill="#000000" stroke="none">
<path d="M370 1211 c0 -5 -21 -14 -46 -20 -77 -20 -138 -57 -194 -117 l-52
-58 -39 22 -39 23 0 -111 0 -110 85 56 c47 32 85 60 85 63 0 4 -16 15 -35 25
l-35 19 30 40 c16 22 51 55 77 74 54 39 155 73 161 54 2 -6 16 -11 32 -11 16
0 30 5 32 11 6 19 107 -15 161 -54 26 -19 61 -53 78 -75 35 -47 57 -56 35 -14
-36 68 -136 139 -230 163 -25 6 -46 15 -46 20 0 5 -13 9 -30 9 -16 0 -30 -4
-30 -9z"/>
<path d="M715 784 c-44 -30 -81 -58 -83 -62 -1 -5 13 -17 32 -27 l35 -19 -30
-40 c-16 -23 -51 -56 -79 -75 -53 -36 -153 -68 -158 -51 -5 14 -59 13 -64 -1
-6 -19 -107 15 -161 54 -26 19 -61 53 -78 75 -35 47 -57 56 -35 15 36 -69 136
-140 230 -164 25 -6 46 -15 46 -20 0 -5 14 -9 30 -9 17 0 30 4 30 9 0 5 21 14
46 20 77 20 138 57 193 117 l52 57 40 -22 39 -22 0 110 c0 61 -1 111 -2 110
-2 0 -39 -25 -83 -55z"/>
</g>
</svg>
